<svg width="50" height="18" viewBox="0 0 50 18" fill="none" xmlns="http://www.w3.org/2000/svg">
<path d="M5.73535 17V15.0723H1.16211V13.3701L4.23145 6.91016H6.31641L3.37695 13.3906H5.73535V11.1074H7.35547V13.3906H8.85938V15.0723H7.35547V17H5.73535ZM13.0361 10.9707H15.1348C15.7819 10.9707 16.167 10.7998 16.29 10.458C16.3584 10.2666 16.3926 9.98177 16.3926 9.60352C16.3926 9.2207 16.3493 8.94271 16.2627 8.76953C16.1807 8.59635 16.028 8.47559 15.8047 8.40723C15.5814 8.33431 15.2327 8.29785 14.7588 8.29785H13.0361V10.9707ZM13.0361 15.5781H15.0049C15.415 15.5781 15.734 15.5576 15.9619 15.5166C16.1943 15.4756 16.3812 15.389 16.5225 15.2568C16.6683 15.1247 16.7617 14.9561 16.8027 14.751C16.8483 14.5459 16.8711 14.2952 16.8711 13.999C16.8711 13.6982 16.862 13.4727 16.8438 13.3223C16.7982 12.9395 16.6546 12.6569 16.4131 12.4746C16.1715 12.2878 15.7705 12.1943 15.21 12.1943H13.0361V15.5781ZM11.0059 17V6.91016H14.8887C16.2741 6.91016 17.222 7.12663 17.7324 7.55957C17.9967 7.78743 18.1836 8.05859 18.293 8.37305C18.4069 8.6875 18.4639 9.10221 18.4639 9.61719C18.4639 10.1322 18.3727 10.5446 18.1904 10.8545C18.0081 11.1598 17.6686 11.3763 17.1719 11.5039C17.8464 11.5951 18.3021 11.8503 18.5391 12.2695C18.776 12.6888 18.8945 13.2448 18.8945 13.9375C18.8945 13.9785 18.8945 14.0195 18.8945 14.0605C18.8945 15.054 18.6211 15.7923 18.0742 16.2754C17.5273 16.7585 16.6296 17 15.3809 17H11.0059ZM20.959 17V6.91016H22.9893V15.4141H27.207V17H20.959ZM33.209 17.1777C31.2311 17.1777 29.9277 16.6855 29.2988 15.7012C28.9434 15.1543 28.7656 14.4456 28.7656 13.5752V10.417C28.7656 8.99967 29.2054 8.00846 30.085 7.44336C30.8096 6.97852 31.86 6.74382 33.2363 6.73926C35.1549 6.73926 36.4219 7.26335 37.0371 8.31152C37.3835 8.89941 37.5566 9.63542 37.5566 10.5195V13.4658C37.5566 14.8421 37.1237 15.8356 36.2578 16.4463C35.5651 16.9339 34.5488 17.1777 33.209 17.1777ZM30.8027 13.8008C30.8027 14.4616 31.0055 14.9242 31.4111 15.1885C31.8167 15.4528 32.4206 15.585 33.2227 15.585C34.0293 15.585 34.6126 15.4551 34.9727 15.1953C35.3372 14.931 35.5195 14.4661 35.5195 13.8008V10.1436C35.5195 9.4873 35.335 9.02246 34.9658 8.74902C34.5967 8.47103 34.0156 8.33203 33.2227 8.33203C32.4342 8.33203 31.8327 8.46875 31.418 8.74219C31.0078 9.01562 30.8027 9.48275 30.8027 10.1436V13.8008ZM46.0879 16.8018C45.9056 16.902 45.6481 16.9886 45.3154 17.0615C44.9873 17.139 44.5452 17.1777 43.9893 17.1777C43.4378 17.1777 42.8978 17.1185 42.3691 17C41.3802 16.7812 40.6943 16.3893 40.3115 15.8242C39.9333 15.2546 39.7441 14.5436 39.7441 13.6914V10.3213C39.7441 8.93132 40.1862 7.96061 41.0703 7.40918C41.7858 6.96257 42.8317 6.73926 44.208 6.73926C46.4183 6.74382 47.7285 7.36589 48.1387 8.60547C48.2754 9.02474 48.3438 9.52832 48.3438 10.1162V10.2734L46.3477 10.4238V10.0205C46.3477 9.36426 46.1882 8.91992 45.8691 8.6875C45.5501 8.45052 44.9896 8.33203 44.1875 8.33203C43.39 8.33203 42.7884 8.45964 42.3828 8.71484C41.9818 8.97005 41.7812 9.42578 41.7812 10.082V13.8965C41.7812 14.5664 41.9886 15.0153 42.4033 15.2432C42.818 15.471 43.4196 15.585 44.208 15.585C44.9964 15.585 45.5775 15.471 45.9512 15.2432C46.3294 15.0153 46.5186 14.5664 46.5186 13.8965V13.1582H44.4814V11.8252H48.3506V17H47.2773L46.9561 15.8379C46.8968 16.0384 46.7829 16.2253 46.6143 16.3984C46.4502 16.5671 46.2747 16.7015 46.0879 16.8018Z" fill="black"/>
</svg>
